{"title":"The Woman He Loved (1988)","uid":7511129,"size":996655272,"categoryP":"video","categoryS":"movies","magnet":"?xt=urn:btih:d57976f5a7f6acbb96457dff1eb509610015f60e&amp;dn=The+Woman+He+Loved+%281988%29&amp;tr=udp%3A%2F%2Ftracker.openbittorrent.com%3A80&amp;tr=udp%3A%2F%2Fopen.demonii.com%3A1337&amp;tr=udp%3A%2F%2Ftracker.coppersurfer.tk%3A6969&amp;tr=udp%3A%2F%2Fexodus.desync.com%3A6969","seeders":1,"leechers":0,"uploader":"ravisugar","files":1,"time":1344327738,"description":"\n\nThe Woman He Loved (1988)  &lt;a href=&quot;\nhttp://www.imdb.com/title/tt0096460/&quot; rel=&quot;nofollow&quot; target=&quot;_NEW&quot;&gt;\nhttp://www.imdb.com/title/tt0096460/&lt;/a&gt;\n\nThe saga of the romance between Edward, Prince of Wales, \nand American divorcee Wallis Warfield Simpson. \nThis tale is from the viewpoint of the woman for whom the throne was abdicated.\n\n\nDirector: Charles Jarrott\nWriters: William Luce\nStars: Anthony Andrews, Jane Seymour and Olivia de Havilland \n \n\nFormat                                   : AVI\nFormat/Info                              : Audio Video Interleave\nFile size                                : 950 MiB\nDuration                                 : 1h 39mn\nOverall bit rate                         : 1 340 Kbps\n\nVideo\nID                                       : 0\nFormat                                   : MPEG-4 Visual\nFormat profile                           : Simple@L3\nFormat settings, BVOP                    : No\nFormat settings, QPel                    : No\nFormat settings, GMC                     : No warppoints\nFormat settings, Matrix                  : Default (H.263)\nCodec ID                                 : XVID\nCodec ID/Hint                            : XviD\nDuration                                 : 1h 39mn\nBit rate                                 : 1 200 Kbps\nWidth                                    : 640 pixels\nHeight                                   : 480 pixels\nDisplay aspect ratio                     : 4:3\nFrame rate                               : 25.000 fps\nColor space                              : YUV\nChroma subsampling                       : 4:2:0\nBit depth                                : 8 bits\nScan type                                : Progressive\nCompression mode                         : Lossy\nBits/(Pixel*Frame)                       : 0.156\nStream size                              : 851 MiB (90%)\nWriting library                          : Magic0432\n\nAudio\nID                                       : 1\nFormat                                   : MPEG Audio\nFormat version                           : Version 1\nFormat profile                           : Layer 3\nMode                                     : Joint stereo\nMode extension                           : MS Stereo\nCodec ID                                 : 55\nCodec ID/Hint                            : MP3\nDuration                                 : 1h 39mn\nBit rate mode                            : Constant\nBit rate                                 : 128 Kbps\nChannel(s)                               : 2 channels\nSampling rate                            : 44.1 KHz\nCompression mode                         : Lossy\nStream size                              : 90.8 MiB (10%)\nAlignment                                : Aligned on interleaves\nInterleave, duration                     : 26 ms (0.65 video frame)","torrent":{"xt":"urn:btih:d57976f5a7f6acbb96457dff1eb509610015f60e","amp;dn":"The+Woman+He+Loved+%281988%29","amp;tr":["udp%3A%2F%2Ftracker.openbittorrent.com%3A80","udp%3A%2F%2Fopen.demonii.com%3A1337","udp%3A%2F%2Ftracker.coppersurfer.tk%3A6969","udp%3A%2F%2Fexodus.desync.com%3A6969"],"infoHash":"d57976f5a7f6acbb96457dff1eb509610015f60e","infoHashBuffer":{"type":"Buffer","data":[213,121,118,245,167,246,172,187,150,69,125,255,30,181,9,97,0,21,246,14]},"announce":[],"urlList":[]}}